<svg xmlns="http://www.w3.org/2000/svg" viewBox="0 0 135.81 22.48">
    <path d="M12.68.57l2.85,5.78a1,1,0,0,0,.76.55l6.38.93a1,1,0,0,1,.56,1.73L18.62,14a1,1,0,0,0-.29.9l1.09,6.35a1,1,0,0,1-1.47,1.07l-5.7-3a1,1,0,0,0-.94,0l-5.7,3A1,1,0,0,1,4.12,21.3l1.09-6.35a1,1,0,0,0-.29-.9L.31,9.55A1,1,0,0,1,.87,7.82L7.24,6.9A1,1,0,0,0,8,6.34L10.86.57A1,1,0,0,1,12.68.57Z" style="fill:#cbc1ab" />
    <path d="M40.75.57,43.6,6.34a1,1,0,0,0,.76.55l6.38.93a1,1,0,0,1,.56,1.73L46.68,14a1,1,0,0,0-.29.9l1.09,6.35A1,1,0,0,1,46,22.37l-5.7-3a1,1,0,0,0-.94,0l-5.7,3a1,1,0,0,1-1.47-1.07l1.09-6.35A1,1,0,0,0,33,14l-4.61-4.5a1,1,0,0,1,.56-1.73l6.38-.93a1,1,0,0,0,.76-.55L38.93.57A1,1,0,0,1,40.75.57Z" style="fill:#cbc1ab" />
    <path d="M68.81.57l2.85,5.78a1,1,0,0,0,.76.55l6.38.93a1,1,0,0,1,.56,1.73L74.75,14a1,1,0,0,0-.29.9l1.09,6.35a1,1,0,0,1-1.47,1.07l-5.7-3a1,1,0,0,0-.94,0l-5.7,3a1,1,0,0,1-1.47-1.07l1.09-6.35a1,1,0,0,0-.29-.9l-4.61-4.5A1,1,0,0,1,57,7.82l6.38-.93a1,1,0,0,0,.76-.55L67,.57A1,1,0,0,1,68.81.57Z" style="fill:#cbc1ab" />
    <path d="M96.88.57l2.85,5.78a1,1,0,0,0,.76.55l6.38.93a1,1,0,0,1,.56,1.73L102.82,14a1,1,0,0,0-.29.9l1.09,6.35a1,1,0,0,1-1.47,1.07l-5.7-3a1,1,0,0,0-.94,0l-5.7,3a1,1,0,0,1-1.47-1.07l1.09-6.35a1,1,0,0,0-.29-.9l-4.61-4.5a1,1,0,0,1,.56-1.73l6.38-.93a1,1,0,0,0,.76-.55L95.07.57A1,1,0,0,1,96.88.57Z" style="fill:#cbc1ab" />
    <path d="M125,.57l2.85,5.78a1,1,0,0,0,.76.55l6.38.93a1,1,0,0,1,.56,1.73L130.89,14a1,1,0,0,0-.29.9l1.09,6.35a1,1,0,0,1-1.47,1.07l-5.7-3a1,1,0,0,0-.94,0l-5.7,3a1,1,0,0,1-1.47-1.07l1.09-6.35a1,1,0,0,0-.29-.9l-4.61-4.5a1,1,0,0,1,.56-1.73l6.38-.93a1,1,0,0,0,.76-.55L123.13.57A1,1,0,0,1,125,.57Z" style="fill:#cbc1ab" />
</svg>